<?xml version="1.0" encoding="UTF-8"?>
<svg id="Layer_1" data-name="Layer 1" xmlns="http://www.w3.org/2000/svg" xmlns:xlink="http://www.w3.org/1999/xlink" viewBox="0 0 1144.66 370.21">
  <defs>
    <style>
      .cls-1, .cls-2, .cls-3, .cls-4, .cls-5, .cls-6 {
        fill: none;
      }

      .cls-2 {
        stroke-width: 10.12px;
      }

      .cls-2, .cls-3, .cls-4 {
        stroke-linecap: round;
        stroke-linejoin: round;
      }

      .cls-2, .cls-3, .cls-4, .cls-5, .cls-6 {
        stroke: #e8640c;
      }

      .cls-3 {
        stroke-width: 5.06px;
      }

      .cls-4 {
        stroke-width: 7.59px;
      }

      .cls-5 {
        stroke-width: 22.77px;
      }

      .cls-5, .cls-6 {
        stroke-miterlimit: 10;
      }

      .cls-7 {
        clip-path: url(#clippath-1);
      }

      .cls-8 {
        clip-path: url(#clippath-3);
      }

      .cls-9 {
        clip-path: url(#clippath-2);
      }

      .cls-6 {
        stroke-width: 4.22px;
      }

      .cls-10, .cls-11 {
        fill: #fff;
      }

      .cls-11 {
        font-family: Skia-Bold, Skia;
        font-size: 300.05px;
        font-variation-settings: 'wght' 1, 'wdth' 1;
        font-weight: 700;
      }

      .cls-12 {
        letter-spacing: -.04em;
      }

      .cls-13 {
        clip-path: url(#clippath);
      }
    </style>
    <clipPath id="clippath">
      <rect class="cls-1" x="41.5" y="45.36" width="404.75" height="236.1"/>
    </clipPath>
    <clipPath id="clippath-1">
      <rect class="cls-1" x="41.5" y="45.36" width="404.75" height="236.1"/>
    </clipPath>
    <clipPath id="clippath-2">
      <rect class="cls-1" x="41.5" y="45.36" width="404.75" height="236.1"/>
    </clipPath>
    <clipPath id="clippath-3">
      <rect class="cls-1" x="41.5" y="45.36" width="404.75" height="236.1"/>
    </clipPath>
  </defs>
  <text class="cls-11" transform="translate(0 252.56)"><tspan x="0" y="0">S</tspan></text>
  <text class="cls-11" transform="translate(315 248.14)"><tspan x="0" y="0">r</tspan><tspan class="cls-12" x="127.02" y="0">ted</tspan></text>
  <g class="cls-13">
    <g class="cls-7">
      <circle class="cls-6" cx="244.32" cy="168.73" r="61.61"/>
      <line class="cls-2" x1="243.96" y1="221.72" x2="243.96" y2="115.74"/>
    </g>
    <g class="cls-9">
      <circle class="cls-5" cx="244.32" cy="168.73" r="78.2"/>
      <line class="cls-3" x1="141.22" y1="244.83" x2="254.61" y2="244.83"/>
      <line class="cls-4" x1="133.36" y1="254.42" x2="246.75" y2="254.42"/>
    </g>
    <g class="cls-8">
      <line class="cls-2" x1="206.49" y1="131.68" x2="281.43" y2="206.62"/>
      <line class="cls-2" x1="206.49" y1="206.62" x2="281.43" y2="131.68"/>
      <line class="cls-2" x1="191.33" y1="169.15" x2="297.31" y2="169.15"/>
      <path class="cls-10" d="M257.06,169.15c0,7.04-5.71,12.74-12.74,12.74s-12.74-5.71-12.74-12.74,5.71-12.74,12.74-12.74,12.74,5.71,12.74,12.74"/>
      <circle class="cls-2" cx="244.32" cy="169.15" r="12.74"/>
    </g>
  </g>
</svg>